<svg width="25" height="29" viewBox="0 0 25 29" fill="none" xmlns="http://www.w3.org/2000/svg">
<path d="M10 5C4.475 5 0 5.625 0 10V22.5C0 23.5625 0.4625 24.575 1.25 25.275V27.5C1.25 28.1875 1.8125 28.75 2.5 28.75H3.75C4.4375 28.75 5 28.1875 5 27.5V26.25H15V27.5C15 28.1875 15.5625 28.75 16.25 28.75H17.5C18.1875 28.75 18.75 28.1875 18.75 27.5V25.275C19.5375 24.575 20 23.5625 20 22.5V10C20 5.625 15.525 5 10 5ZM4.375 23.75C3.3375 23.75 2.5 22.9125 2.5 21.875C2.5 20.8375 3.3375 20 4.375 20C5.4125 20 6.25 20.8375 6.25 21.875C6.25 22.9125 5.4125 23.75 4.375 23.75ZM15.625 23.75C14.5875 23.75 13.75 22.9125 13.75 21.875C13.75 20.8375 14.5875 20 15.625 20C16.6625 20 17.5 20.8375 17.5 21.875C17.5 22.9125 16.6625 23.75 15.625 23.75ZM17.5 16.25H2.5V10H17.5V16.25ZM25 5V17.5C25 18.5625 24.5375 19.575 23.75 20.275V22.5C23.75 23.1875 23.1875 23.75 22.5 23.75H22.35C22.4375 23.35 22.5 22.9375 22.5 22.5V10C22.5 2.5 13.75 2.5 10 2.5C8.8625 2.5 7.25 2.5 5.575 2.7125C6.9375 0.4 10.625 0 15 0C20.525 0 25 0.625 25 5Z" fill="#385723"/>
</svg>
