<svg width="30" height="30" viewBox="0 0 30 30" fill="none" xmlns="http://www.w3.org/2000/svg">
<path d="M21.811 22.8572L22.6547 22.0191C26.5585 22.1466 26.6185 22.0097 26.7901 21.6084L27.8626 18.9975L27.9422 18.75L27.8551 18.5334C27.8091 18.4191 27.6676 18.0778 25.2301 15.7538V14.5313C28.0426 11.8219 27.9826 11.6831 27.8222 11.2866L26.7544 8.64844C26.5941 8.25282 26.5332 8.09813 22.6575 8.20407L21.8138 7.33219C21.9009 6.04792 21.8566 4.7581 21.6816 3.48282L21.5729 3.23626L18.7847 2.01751C18.3741 1.83001 18.2297 1.76251 15.5972 4.62938L14.4141 4.61157C11.7038 1.71844 11.5754 1.77094 11.1694 1.93501L8.57724 2.98313C8.1713 3.14719 8.02786 3.20532 8.18536 7.14282L7.34817 7.97719C3.4463 7.84969 3.3863 7.98844 3.21661 8.38782L2.14224 10.9997L2.05786 11.25L2.14599 11.4675C2.19192 11.58 2.32786 11.9175 4.77099 14.2444V15.4631C1.95849 18.1725 2.01942 18.3113 2.18067 18.7088L3.24755 21.3497C3.41067 21.7538 3.4688 21.8972 7.34349 21.7959L8.18724 22.6725C8.09978 23.9548 8.14281 25.2427 8.31567 26.5163L8.42442 26.7647L11.2304 27.9909C11.6382 28.1616 11.7797 28.2225 14.4047 25.3659L15.5879 25.3809C18.3019 28.2778 18.4407 28.2216 18.8372 28.0613L21.4238 27.0159C21.8326 26.8538 21.975 26.7966 21.811 22.8572ZM10.6941 16.7409C10.367 15.886 10.2996 14.9535 10.5005 14.0604C10.7014 13.1673 11.1615 12.3534 11.8233 11.7209C12.485 11.0884 13.3188 10.6653 14.22 10.5049C15.1212 10.3445 16.0498 10.4538 16.8891 10.8191C17.7284 11.1845 18.4412 11.7896 18.9379 12.5585C19.4346 13.3274 19.6932 14.2259 19.6812 15.1412C19.6692 16.0565 19.3871 16.9479 18.8704 17.7035C18.3536 18.4591 17.6253 19.0453 16.7766 19.3884C15.6187 19.8412 14.3286 19.8169 13.1887 19.3207C12.0487 18.8245 11.1518 17.8969 10.6941 16.7409Z" fill="#385723"/>
</svg>