<svg width="39" height="34" viewBox="0 0 39 34" fill="none" xmlns="http://www.w3.org/2000/svg">
<path d="M2.4375 11.6875H14.625V13.8125H2.4375V11.6875Z" fill="#385723"/>
<path d="M0 16H14.625V18.125H0V16Z" fill="#385723"/>
<path d="M36.4637 17.6439L32.8075 10.2064C32.7137 10.0152 32.5575 9.85228 32.3584 9.73781C32.1593 9.62334 31.926 9.56238 31.6875 9.5625H28.0312V7.4375C28.0312 7.15571 27.9028 6.88546 27.6742 6.6862C27.4457 6.48694 27.1357 6.375 26.8125 6.375H7.31245V8.5H25.5937V21.8407C25.0384 22.1219 24.5523 22.4961 24.1637 22.9418C23.775 23.3874 23.4914 23.8958 23.3293 24.4375H15.6706C15.374 23.4359 14.6685 22.563 13.6865 21.9825C12.7045 21.4019 11.5133 21.1535 10.3362 21.2839C9.15908 21.4142 8.07693 21.9143 7.29256 22.6905C6.50818 23.4667 6.07544 24.4656 6.07544 25.5C6.07544 26.5344 6.50818 27.5333 7.29256 28.3095C8.07693 29.0856 9.15908 29.5858 10.3362 29.7161C11.5133 29.8465 12.7045 29.5981 13.6865 29.0175C14.6685 28.4369 15.374 27.5641 15.6706 26.5625H23.3293C23.5944 27.4744 24.2007 28.2831 25.0523 28.8609C25.9039 29.4386 26.9521 29.7522 28.0312 29.7522C29.1103 29.7522 30.1585 29.4386 31.0101 28.8609C31.8617 28.2831 32.468 27.4744 32.7331 26.5625H35.3437C35.6669 26.5625 35.9769 26.4505 36.2055 26.2513C36.434 26.052 36.5625 25.7818 36.5625 25.5V18.0625C36.5625 17.9186 36.5289 17.7761 36.4637 17.6439ZM10.9687 27.625C10.4866 27.625 10.0153 27.5004 9.6145 27.2669C9.21365 27.0334 8.90123 26.7015 8.71674 26.3132C8.53225 25.9249 8.48398 25.4976 8.57804 25.0854C8.67209 24.6732 8.90424 24.2946 9.24513 23.9974C9.58602 23.7002 10.0203 23.4978 10.4932 23.4158C10.966 23.3338 11.4561 23.3759 11.9015 23.5367C12.3469 23.6976 12.7276 23.9699 12.9954 24.3194C13.2632 24.6689 13.4062 25.0797 13.4062 25.5C13.4056 26.0634 13.1485 26.6036 12.6916 27.002C12.2346 27.4004 11.615 27.6244 10.9687 27.625ZM28.0312 11.6875H30.8831L33.4961 17H28.0312V11.6875ZM28.0312 27.625C27.5491 27.625 27.0778 27.5004 26.677 27.2669C26.2762 27.0334 25.9637 26.7015 25.7792 26.3132C25.5948 25.9249 25.5465 25.4976 25.6405 25.0854C25.7346 24.6732 25.9667 24.2946 26.3076 23.9974C26.6485 23.7002 27.0828 23.4978 27.5557 23.4158C28.0285 23.3338 28.5186 23.3759 28.964 23.5367C29.4094 23.6976 29.7901 23.9699 30.0579 24.3194C30.3257 24.6689 30.4687 25.0797 30.4687 25.5C30.4681 26.0634 30.211 26.6036 29.7541 27.002C29.2971 27.4004 28.6775 27.6244 28.0312 27.625ZM34.125 24.4375H32.7331C32.4647 23.5274 31.8574 22.7207 31.0065 22.1438C30.1555 21.567 29.1091 21.2526 28.0312 21.25V19.125H34.125V24.4375Z" fill="#385723"/>
</svg>
