<svg width="29" height="27" viewBox="0 0 29 27" fill="none" xmlns="http://www.w3.org/2000/svg">
<path d="M0.708008 3.29125C0.708008 2.41836 0.997953 1.58121 1.51406 0.963985C2.03016 0.346756 2.73015 0 3.46004 0H15.8442C16.5741 0 17.274 0.346756 17.7901 0.963985C18.3063 1.58121 18.5962 2.41836 18.5962 3.29125V6.5825C18.5962 7.01895 18.4512 7.43752 18.1932 7.74613C17.9351 8.05475 17.5851 8.22812 17.2202 8.22812C16.8552 8.22812 16.5052 8.05475 16.2472 7.74613C15.9891 7.43752 15.8442 7.01895 15.8442 6.5825V3.29125H3.46004V23.0387H15.8442V19.7475C15.8442 19.3111 15.9891 18.8925 16.2472 18.5839C16.5052 18.2753 16.8552 18.1019 17.2202 18.1019C17.5851 18.1019 17.9351 18.2753 18.1932 18.5839C18.4512 18.8925 18.5962 19.3111 18.5962 19.7475V23.0387C18.5962 23.9116 18.3063 24.7488 17.7901 25.366C17.274 25.9832 16.5741 26.33 15.8442 26.33H3.46004C2.73015 26.33 2.03016 25.9832 1.51406 25.366C0.997953 24.7488 0.708008 23.9116 0.708008 23.0387V3.29125ZM21.7514 7.06467C22.0094 6.75616 22.3594 6.58285 22.7242 6.58285C23.0891 6.58285 23.439 6.75616 23.6971 7.06467L27.8251 12.0015C28.0831 12.3101 28.228 12.7286 28.228 13.165C28.228 13.6014 28.0831 14.0199 27.8251 14.3285L23.6971 19.2653C23.4376 19.5651 23.09 19.731 22.7292 19.7272C22.3684 19.7235 22.0233 19.5504 21.7682 19.2453C21.513 18.9402 21.3683 18.5274 21.3652 18.096C21.3621 17.6645 21.5007 17.2488 21.7514 16.9384L23.5306 14.8106H10.3401C9.97517 14.8106 9.62517 14.6372 9.36712 14.3286C9.10907 14.02 8.9641 13.6014 8.9641 13.165C8.9641 12.7286 9.10907 12.31 9.36712 12.0014C9.62517 11.6928 9.97517 11.5194 10.3401 11.5194H23.5306L21.7514 9.39158C21.4934 9.08298 21.3485 8.66449 21.3485 8.22812C21.3485 7.79176 21.4934 7.37327 21.7514 7.06467Z" fill="#385723"/>
</svg>
