<svg width="27" height="27" viewBox="0 0 27 27" fill="none" xmlns="http://www.w3.org/2000/svg">
<path d="M11.3287 0.755354C11.9369 0.267474 12.7057 0 13.5 0C14.2943 0 15.0631 0.267474 15.6713 0.755354L25.7962 8.88417C26.1731 9.18654 26.4762 9.56397 26.6841 9.98999C26.8921 10.416 26.9999 10.8803 27 11.3503V24.8518C27 25.4215 26.7629 25.9679 26.341 26.3708C25.919 26.7737 25.3467 27 24.75 27H18.5625C17.9658 27 17.3935 26.7737 16.9715 26.3708C16.5496 25.9679 16.3125 25.4215 16.3125 24.8518V17.3331H10.6875V24.8518C10.6875 25.4215 10.4504 25.9679 10.0285 26.3708C9.60653 26.7737 9.03424 27 8.4375 27H2.25C1.65326 27 1.08097 26.7737 0.65901 26.3708C0.237053 25.9679 0 25.4215 0 24.8518V11.3492C0.000124492 10.8792 0.107939 10.4149 0.315883 9.98892C0.523827 9.5629 0.826867 9.18547 1.20375 8.8831L11.3287 0.75428V0.755354ZM14.2245 2.39873C14.0217 2.23573 13.7651 2.14635 13.5 2.14635C13.2349 2.14635 12.9783 2.23573 12.7755 2.39873L2.6505 10.5297C2.52535 10.6303 2.42468 10.7557 2.35551 10.8973C2.28634 11.0388 2.25033 11.193 2.25 11.3492V24.8507H8.4375V17.332C8.4375 16.7623 8.67455 16.2159 9.09651 15.813C9.51847 15.4101 10.0908 15.1838 10.6875 15.1838H16.3125C16.9092 15.1838 17.4815 15.4101 17.9035 15.813C18.3254 16.2159 18.5625 16.7623 18.5625 17.332V24.8507H24.75V11.3492C24.75 11.1927 24.7141 11.038 24.645 10.8961C24.5758 10.7542 24.4749 10.6284 24.3495 10.5275L14.2245 2.39873Z" fill="#385723"/>
</svg>
