<svg width="220" height="220" viewBox="0 0 220 220" fill="none" xmlns="http://www.w3.org/2000/svg">
<path d="M173.871 23.615C201.815 43.2579 220 75.3848 220 111.746C220 171.46 170.855 219.869 110.222 220C49.6775 220.131 0.0887906 171.547 8.09548e-05 111.92C-0.0442739 75.5594 18.1412 43.3452 46.0404 23.6587C51.2299 20.0357 58.4597 21.5635 61.5646 27.0198L68.5726 39.2857C71.1896 43.869 69.9476 49.6745 65.6452 52.8174C47.238 66.2618 35.4839 87.5634 35.4839 111.702C35.4396 151.992 68.5283 185.079 110 185.079C150.629 185.079 184.782 152.69 184.516 111.266C184.383 88.6547 173.561 66.8293 154.311 52.7737C150.008 49.6309 148.811 43.8253 151.427 39.2857L158.436 27.0198C161.54 21.6071 168.726 19.992 173.871 23.615ZM127.742 115.238V10.4762C127.742 4.67063 122.996 0 117.097 0H102.903C97.0041 0 92.2581 4.67063 92.2581 10.4762V115.238C92.2581 121.044 97.0041 125.714 102.903 125.714H117.097C122.996 125.714 127.742 121.044 127.742 115.238Z" fill="#385723"/>
</svg>
