<svg width="30" height="28" viewBox="0 0 30 28" fill="none" xmlns="http://www.w3.org/2000/svg">
<path d="M7.5 0C4.40625 0 1.875 2.719 1.875 6.04222C1.875 8.0563 2.8125 9.86896 4.21875 10.876C1.6875 12.2859 0 15.0049 0 18.1267H1.875C1.875 14.8034 4.40625 12.0844 7.5 12.0844C10.5938 12.0844 13.125 14.8034 13.125 18.1267H15C15 14.9041 17.4375 12.1851 20.4375 12.0844H20.625C22.9688 12.0844 24.9375 10.5739 25.7812 8.45911C25.7812 8.45911 25.7812 8.35841 25.875 8.35841C25.9688 8.2577 25.9688 8.0563 25.9688 7.95559C25.9688 7.85489 25.9688 7.85489 26.0625 7.75419C26.0625 7.65348 26.1562 7.45207 26.1562 7.35137C26.1562 7.25067 26.1562 7.14996 26.25 7.04926C26.25 6.94856 26.25 6.84785 26.3438 6.74715V6.14293C26.3438 2.8197 23.8125 0.100704 20.7188 0.100704C17.625 0.100704 15.0938 2.8197 15.0938 6.14293C15.0938 8.157 16.0312 9.96967 17.4375 10.9767C16.0312 11.6816 14.9062 12.8901 14.1562 14.2999C13.4062 12.8901 12.2812 11.6816 10.875 10.9767C12.1875 9.86896 13.125 8.0563 13.125 6.04222C13.125 2.719 10.5938 0 7.5 0ZM7.5 2.01407C9.5625 2.01407 11.25 3.82674 11.25 6.04222C11.25 8.2577 9.5625 10.0704 7.5 10.0704C5.4375 10.0704 3.75 8.2577 3.75 6.04222C3.75 3.82674 5.4375 2.01407 7.5 2.01407ZM20.625 2.01407C22.6875 2.01407 24.375 3.82674 24.375 6.04222C24.375 8.2577 22.6875 10.0704 20.625 10.0704C18.5625 10.0704 16.875 8.2577 16.875 6.04222C16.875 3.82674 18.5625 2.01407 20.625 2.01407ZM22.5938 13.0915V15.2063C22.0312 15.307 21.4688 15.6091 21 15.9112L19.5938 14.4006L18.2812 15.8105L19.6875 17.321C19.3125 17.8246 19.125 18.4288 19.0312 19.1337H16.875V21.1478H18.8438C18.9375 21.752 19.2188 22.3562 19.5 22.9604L18.0938 24.471L19.4062 25.8809L20.8125 24.3703C21.2812 24.6724 21.8438 24.9745 22.4062 25.0752V27.19H24.2812V25.0752C24.8438 24.9745 25.4062 24.6724 25.875 24.3703L27.2812 25.8809L28.5938 24.471L27.1875 22.9604C27.5625 22.4569 27.75 21.8527 27.8438 21.1478H30V19.1337H28.0312C27.9375 18.5295 27.6562 17.9253 27.375 17.321L28.7812 15.8105L27.4688 14.4006L26.0625 15.9112C25.5938 15.6091 25.0312 15.307 24.4688 15.2063V13.0915H22.5938ZM23.4375 17.1196C25.0312 17.1196 26.25 18.4288 26.25 20.1407C26.25 21.8527 25.0312 23.1619 23.4375 23.1619C21.8438 23.1619 20.625 21.8527 20.625 20.1407C20.625 18.4288 21.8438 17.1196 23.4375 17.1196ZM23.4375 19.1337C23.3183 19.1353 23.2009 19.1648 23.0934 19.2203C22.9819 19.2773 22.8804 19.3546 22.7934 19.4489C22.7057 19.5423 22.6337 19.6513 22.5806 19.7712C22.529 19.8866 22.5015 20.0127 22.5 20.1407C22.5 20.2666 22.5291 20.3925 22.5806 20.5103C22.6322 20.6281 22.7053 20.7389 22.7934 20.8326C22.8806 20.9272 22.9837 21.0058 23.0934 21.0612C23.2009 21.1166 23.3183 21.1462 23.4375 21.1478C23.9062 21.1478 24.375 20.6443 24.375 20.1407C24.375 19.6372 23.9062 19.1337 23.4375 19.1337Z" fill="#385723"/>
</svg>
